HIERARCHY
ROOT Hips
{
	OFFSET 0.000000 0.000000 0.000000
	CHANNELS 6 Xposition Yposition Zposition Xrotation Yrotation Zrotation
	JOINT LeftUpLeg_virtual
	{
		OFFSET 0.000000 0.000000 0.000000
		CHANNELS 3 Xrotation Yrotation Zrotation
		JOINT LeftUpLeg
		{
			OFFSET 15.427100 -6.655098 0.678600
			CHANNELS 3 Xrotation Yrotation Zrotation
			JOINT LeftLeg
			{
				OFFSET 4.081073 -39.591068 13.024000
				CHANNELS 3 Xrotation Yrotation Zrotation
				JOINT LeftFoot
				{
					OFFSET -4.081074 -37.707932 -15.979700
					CHANNELS 3 Xrotation Yrotation Zrotation
					JOINT LeftToeBase
					{
						OFFSET 5.346399 -15.068900 20.645000
						CHANNELS 3 Xrotation Yrotation Zrotation
						JOINT LeftToe_End
						{
							OFFSET 2.754700 0.931300 11.300900
							CHANNELS 3 Xrotation Yrotation Zrotation
							End Site
							{
								OFFSET 0 0 0
							}
						}
					}
				}
			}
		}
	}
	JOINT RightUpLeg_virtual
	{
		OFFSET 0.000000 0.000000 0.000000
		CHANNELS 3 Xrotation Yrotation Zrotation
		JOINT RightUpLeg
		{
			OFFSET -15.569500 -6.655098 0.678600
			CHANNELS 3 Xrotation Yrotation Zrotation
			JOINT RightLeg
			{
				OFFSET -4.081825 -39.591045 13.023800
				CHANNELS 3 Xrotation Yrotation Zrotation
				JOINT RightFoot
				{
					OFFSET 4.081824 -37.707954 -15.979600
					CHANNELS 3 Xrotation Yrotation Zrotation
					JOINT RightToeBase
					{
						OFFSET -5.346400 -15.068900 20.645000
						CHANNELS 3 Xrotation Yrotation Zrotation
						JOINT RightToe_End
						{
							OFFSET -2.754700 0.931300 11.300900
							CHANNELS 3 Xrotation Yrotation Zrotation
							End Site
							{
								OFFSET 0 0 0
							}
						}
					}
				}
			}
		}
	}
	JOINT Spine_virtual
	{
		OFFSET 0.000000 0.000000 0.000000
		CHANNELS 3 Xrotation Yrotation Zrotation
		JOINT Spine
		{
			OFFSET -0.279200 12.230698 -2.892100
			CHANNELS 3 Xrotation Yrotation Zrotation
			JOINT Spine1
			{
				OFFSET -0.232667 10.192268 -1.242267
				CHANNELS 3 Xrotation Yrotation Zrotation
				JOINT Spine1_split
				{
					OFFSET -0.232667 10.192268 -1.242267
					CHANNELS 3 Xrotation Yrotation Zrotation
					JOINT Spine2
					{
						OFFSET -0.232667 10.192268 -1.242267
						CHANNELS 3 Xrotation Yrotation Zrotation
						JOINT Neck_virtual
						{
							OFFSET 0.000000 0.000000 0.000000
							CHANNELS 3 Xrotation Yrotation Zrotation
							JOINT Neck
							{
								OFFSET -0.418800 17.814194 8.416900
								CHANNELS 3 Xrotation Yrotation Zrotation
								JOINT Head
								{
									OFFSET 0.000000 7.031097 3.806800
									CHANNELS 3 Xrotation Yrotation Zrotation
									JOINT HeadTop_End
									{
										OFFSET 0.000000 24.646606 12.978600
										CHANNELS 3 Xrotation Yrotation Zrotation
										End Site
										{
											OFFSET 0 0 0
										}
									}
								}
							}
						}
						JOINT LeftShoulder_virtual
						{
							OFFSET 0.000000 0.000000 0.000000
							CHANNELS 3 Xrotation Yrotation Zrotation
							JOINT LeftShoulder
							{
								OFFSET 8.476499 7.247704 -3.868750
								CHANNELS 3 Xrotation Yrotation Zrotation
								JOINT LeftShoulder_split
								{
									OFFSET 8.476499 7.247704 -3.868750
									CHANNELS 3 Xrotation Yrotation Zrotation
									JOINT LeftArm
									{
										OFFSET 9.308998 -2.777710 0.208600
										CHANNELS 3 Xrotation Yrotation Zrotation
										JOINT LeftForeArm
										{
											OFFSET 29.972298 0.000000 0.000000
											CHANNELS 3 Xrotation Yrotation Zrotation
											JOINT LeftHand
											{
												OFFSET 26.026505 0.000000 0.000000
												CHANNELS 3 Xrotation Yrotation Zrotation
												End Site
												{
													OFFSET 0 0 0
												}
											}
										}
									}
								}
							}
						}
						JOINT RightShoulder_virtual
						{
							OFFSET 0.000000 0.000000 0.000000
							CHANNELS 3 Xrotation Yrotation Zrotation
							JOINT RightShoulder
							{
								OFFSET -7.570500 7.247704 -3.868750
								CHANNELS 3 Xrotation Yrotation Zrotation
								JOINT RightShoulder_split
								{
									OFFSET -7.570500 7.247704 -3.868750
									CHANNELS 3 Xrotation Yrotation Zrotation
									JOINT RightArm
									{
										OFFSET -9.308998 -2.777710 0.208500
										CHANNELS 3 Xrotation Yrotation Zrotation
										JOINT RightForeArm
										{
											OFFSET -29.972300 0.000000 0.000000
											CHANNELS 3 Xrotation Yrotation Zrotation
											JOINT RightHand
											{
												OFFSET -26.026505 0.000000 0.000000
												CHANNELS 3 Xrotation Yrotation Zrotation
												End Site
												{
													OFFSET 0 0 0
												}
											}
										}
									}
								}
							}
						}
					}
				}
			}
		}
	}
}
MOTION
Frames: 6
Frame Time: 0.03333333
9.370494 80.469643 -12.365425 0.000000 0.000000 0.000000 44.587099 -80.148486 50.985771 -0.342173 32.030176 10.258811 24.456662 -10.722194 -2.447525 -22.023288 23.519032 -20.188700 -2.788194 -5.035349 -5.642191 0.000000 0.000000 0.000000 48.329346 -79.640716 53.811867 -45.921582 25.277919 -10.249169 40.757084 -0.233535 3.442070 -7.483440 8.519229 26.909996 5.635265 5.973999 -12.663922 0.000000 0.000000 0.000000 34.158534 -75.409585 39.893960 25.352708 -8.359986 0.738127 18.935132 -0.630146 0.847966 0.112422 0.712496 -0.146169 0.000000 0.000000 0.000000 18.255549 1.235912 0.426628 -2.089876 -0.433639 6.386714 -23.229511 -45.217782 -0.508530 0.000000 0.000000 0.000000 20.446364 -1.666546 0.880618 -0.181986 4.901909 16.375150 -1.934130 -4.457255 0.028215 7.266515 -0.995793 -67.462953 44.648974 -66.807036 38.023875 0.000000 0.000000 0.000000 20.563678 -0.279558 1.822845 7.341994 12.926898 6.033780 5.286689 0.047684 9.039900 -52.283951 32.759486 62.153758 -135.129187 73.775838 125.701080 0.000000 0.000000 0.000000 
9.587396 80.294647 -12.544788 0.000000 0.000000 0.000000 38.098208 -79.392637 44.382170 -1.919645 31.889648 11.803274 25.032438 -12.008162 -2.186259 -21.493483 20.315862 -19.591781 -4.059233 -5.010331 -6.556055 0.000000 0.000000 0.000000 40.631262 -78.922481 46.143962 -44.787839 24.771151 -12.969963 43.193905 -0.393266 3.099120 -7.870842 6.024662 27.856909 5.805959 5.732233 -12.089306 0.000000 0.000000 0.000000 31.316479 -74.847822 36.731439 24.173819 -7.255357 1.566983 18.676749 -1.742455 0.596905 0.067770 0.663723 -0.123390 0.000000 0.000000 0.000000 18.368894 -0.002049 -0.019867 -0.200853 0.047186 4.666527 -21.894322 -37.602865 1.171247 0.000000 0.000000 0.000000 20.117267 -2.936267 0.717572 -0.439357 5.623150 16.052196 -0.448082 -5.990784 0.836226 1.363948 5.738903 -63.455374 48.669527 -71.263243 41.095848 0.000000 0.000000 0.000000 20.060786 -1.720071 1.267488 7.512438 13.368946 6.150321 3.751506 0.526335 8.090740 -46.416480 28.005953 57.393841 -146.715428 74.818623 138.414876 0.000000 0.000000 0.000000 
9.756769 80.416138 -13.033375 0.000000 0.000000 0.000000 29.996032 -77.942116 36.003314 -4.344808 30.838451 14.004894 25.670948 -13.592322 -1.641063 -19.569587 15.946487 -20.016426 -5.874816 -4.908649 -7.089413 0.000000 0.000000 0.000000 32.643984 -77.612874 37.976473 -43.110395 23.861151 -16.039355 44.923711 -0.039714 2.639952 -7.945574 3.453360 30.058884 6.567297 5.705263 -11.995106 0.000000 0.000000 0.000000 27.544539 -73.643386 32.362956 22.390636 -5.446806 3.207733 18.265340 -3.025549 0.141093 -0.007292 0.581194 -0.145344 0.000000 0.000000 0.000000 18.308687 -1.491163 -0.532950 1.916444 1.298377 2.108598 -21.271473 -28.609521 1.256526 0.000000 0.000000 0.000000 19.671157 -4.379073 0.287205 -0.529069 6.104697 15.378335 1.412374 -6.508239 1.402705 -4.535603 8.621253 -59.536908 61.597064 -77.012104 53.189603 0.000000 0.000000 0.000000 19.585573 -3.334235 0.477848 7.733166 14.247148 6.054564 1.097422 0.330237 7.585029 -41.861137 24.835302 54.918635 -156.726709 75.244028 149.614338 0.000000 0.000000 0.000000 
9.873238 80.761276 -13.477909 0.000000 0.000000 0.000000 22.719634 -75.708446 28.298297 -7.369089 29.017512 16.422179 26.361520 -14.746365 -0.960791 -16.822319 11.042188 -20.579795 -7.762007 -4.799110 -7.079915 0.000000 0.000000 0.000000 26.114699 -75.739524 31.073836 -40.505959 22.279254 -18.816570 45.456637 0.524900 1.952493 -8.457556 0.600387 32.683777 7.793152 5.882376 -12.146464 0.000000 0.000000 0.000000 23.880151 -71.981711 27.889503 20.048309 -3.082976 5.160022 17.664664 -4.199749 -0.538274 -0.144607 0.393510 -0.189254 0.000000 0.000000 0.000000 17.978678 -2.932603 -1.172224 4.363413 2.953458 -0.660597 -20.761644 -19.127976 0.585505 0.000000 0.000000 0.000000 19.115312 -5.709516 -0.447061 -0.373489 6.061116 14.177571 2.464286 -5.950428 1.407342 -8.970262 7.211032 -56.499291 94.896982 -81.153644 85.833054 0.000000 0.000000 0.000000 19.211012 -4.836784 -0.493677 7.828849 15.286325 5.699402 -2.189515 -0.650033 7.834279 -38.298295 22.991416 53.841630 -162.522084 75.034539 156.518211 0.000000 0.000000 0.000000 
9.867697 81.162636 -13.630222 0.000000 0.000000 0.000000 17.314004 -72.745667 22.363311 -10.734561 26.581203 18.559478 27.283935 -14.971650 -0.180865 -13.897536 6.541584 -20.601387 -8.729966 -4.707674 -6.706824 0.000000 0.000000 0.000000 21.319264 -73.377795 25.816409 -37.130841 19.810098 -20.949471 44.984319 0.942255 1.049477 -9.407328 -2.796909 34.899442 8.681073 6.274231 -12.288146 0.000000 0.000000 0.000000 20.054173 -69.807395 23.383294 17.331661 -0.425668 6.847133 16.921734 -4.967733 -1.327080 -0.192732 0.210438 -0.135685 0.000000 0.000000 0.000000 17.266720 -3.969876 -1.888381 6.951263 4.854583 -2.890457 -20.144016 -9.867947 -0.265239 0.000000 0.000000 0.000000 18.364241 -6.640338 -1.396612 0.025886 5.285563 12.419698 2.521315 -5.090651 0.833180 -10.954581 3.090516 -54.765755 136.299157 -80.640123 126.936976 0.000000 0.000000 0.000000 18.910846 -5.862254 -1.472323 7.711504 15.966530 4.838225 -5.561367 -1.665503 9.307711 -35.539458 22.401839 53.035538 -163.255468 74.071195 158.210199 0.000000 0.000000 0.000000 
9.674932 81.409180 -13.504730 0.000000 0.000000 0.000000 13.867312 -69.257517 18.354364 -14.002988 23.900222 19.935770 28.294988 -14.034130 0.582284 -11.759351 3.212462 -19.505999 -8.238800 -4.632630 -6.195233 0.000000 0.000000 0.000000 17.737863 -70.784167 21.897160 -33.411130 16.485500 -22.418465 44.191908 1.212065 -0.040940 -10.657113 -6.630128 36.469228 8.840886 6.833499 -12.286161 0.000000 0.000000 0.000000 16.405167 -67.062574 19.355252 14.462618 2.342931 7.777922 16.015178 -5.171212 -1.996933 -0.163383 -0.109716 -0.064419 0.000000 0.000000 0.000000 16.173985 -4.372981 -2.449909 9.231720 6.555715 -4.026589 -19.282080 -2.049369 -0.937010 0.000000 0.000000 0.000000 17.263120 -6.945426 -2.356767 0.559060 3.913840 10.210859 1.564371 -4.127413 -0.144680 -10.881374 -2.102341 -53.957825 156.757623 -78.109893 147.485245 0.000000 0.000000 0.000000 18.437368 -6.190543 -2.233843 7.332203 16.049925 3.400827 -8.197326 -2.427839 11.244295 -33.900445 22.826699 52.360753 -159.830279 72.567318 155.502657 0.000000 0.000000 0.000000 
